This is the DVDrip from newest Video from No TE VA GUSTAR, my favorite latin rock band from Uruguay (South America).

Tracklist:

01 Con El Viento
02 Fuera De Control
03 Chau
04 Al Vacío
05 Como Si Estuviera
06 Cero A La Izquierda
07 Cosa Linda
08 Clara
09 Verte Reír
10 Tu Defecto Es El Mío
11 Cielo De Un Solo Color
12 Ángel Con Campera
13 Tan Lejos
14 Te Voy A Llevar
15 No Hay Dolor
16 Pensar
17 El Camino
18 No Era Cierto
19 Memorias Del Olvido
20 Rata (Bonus Track)
21 Arde
22 Himno Nacional Uruguayo


General
Complete name                  : No Te Va Gustar - Público (DVDRip By Fuckin'        RoCkErAzO! 2012).avi
Format                         : AVI
Format/Info                    : Audio Video Interleave
File size                      : 2.08 GiB
Duration                       : 1h 25mn
Overall bit rate               : 3 468 Kbps

Video
ID                             : 0
Format                         : MPEG-4 Visual
Format profile                 : Advanced Simple@L5
Format settings, BVOP          : 2
Format settings, QPel          : No
Format settings, GMC           : No warppoints
Format settings, Matrix        : Default (H.263)
Muxing mode                    : Packed bitstream
Codec ID                       : XVID
Codec ID/Hint                  : XviD
Duration                       : 1h 25mn
Bit rate                       : 3 130 Kbps
Width                          : 720 pixels
Height                         : 480 pixels
Display aspect ratio           : 3:2
Frame rate                     : 29.970 fps
Standard                       : NTSC
Color space                    : YUV
Chroma subsampling             : 4:2:0
Bit depth                      : 8 bits
Scan type                      : Progressive
Compression mode               : Lossy
Bits/(Pixel*Frame)             : 0.302
Stream size                    : 1.88 GiB (90%)
Writing library                : XviD 64

Audio
ID                             : 1
Format                         : MPEG Audio
Format version                 : Version 1
Format profile                 : Layer 3
Codec ID                       : 55
Codec ID/Hint                  : MP3
Duration                       : 1h 25mn
Bit rate mode                  : Constant
Bit rate                       : 192 Kbps
Channel(s)                     : 2 channels
Sampling rate                  : 44.1 KHz
Compression mode               : Lossy
Delay relative to video        : 26ms
Stream size                    : 118 MiB (6%)
Alignment                      : Split accross interleaves
Title                          : Audio Stream
Writing library                : LAME3.92
